HIERARCHY
ROOT root
{
	OFFSET 0.000000 0.000000 0.000000
	CHANNELS 6 Xposition Yposition Zposition Zrotation Yrotation Xrotation
	JOINT lhip
	{
		OFFSET 0.058581 -0.082280 -0.017664
		CHANNELS 3 Zrotation Yrotation Xrotation
		JOINT lknee
		{
			OFFSET 0.043451 -0.386469 0.008037
			CHANNELS 3 Zrotation Yrotation Xrotation
			JOINT lankle
			{
				OFFSET -0.014790 -0.426874 -0.037428
				CHANNELS 3 Zrotation Yrotation Xrotation
				JOINT ltoe
				{
					OFFSET 0.041054 -0.060286 0.122042
					CHANNELS 3 Zrotation Yrotation Xrotation
					End Site
					{
						OFFSET 0.000000 0.000000 0.000000
					}
				}
			}
		}
	}
	JOINT rhip
	{
		OFFSET -0.060310 -0.090513 -0.013543
		CHANNELS 3 Zrotation Yrotation Xrotation
		JOINT rknee
		{
			OFFSET -0.043257 -0.383688 -0.004843
			CHANNELS 3 Zrotation Yrotation Xrotation
			JOINT rankle
			{
				OFFSET 0.019056 -0.420046 -0.034562
				CHANNELS 3 Zrotation Yrotation Xrotation
				JOINT rtoe
				{
					OFFSET -0.034840 -0.062106 0.130323
					CHANNELS 3 Zrotation Yrotation Xrotation
					End Site
					{
						OFFSET 0.000000 0.000000 0.000000
					}
				}
			}
		}
	}
	JOINT lowerback
	{
		OFFSET 0.004439 0.124404 -0.038385
		CHANNELS 3 Zrotation Yrotation Xrotation
		JOINT upperback
		{
			OFFSET 0.004488 0.137956 0.026820
			CHANNELS 3 Zrotation Yrotation Xrotation
			JOINT chest
			{
				OFFSET -0.002265 0.056032 0.002855
				CHANNELS 3 Zrotation Yrotation Xrotation
				JOINT lowerneck
				{
					OFFSET -0.013390 0.211636 -0.033468
					CHANNELS 3 Zrotation Yrotation Xrotation
					JOINT upperneck
					{
						OFFSET 0.010113 0.088937 0.050410
						CHANNELS 3 Zrotation Yrotation Xrotation
						End Site
						{
							OFFSET 0.000000 0.000000 0.000000
						}
					}
				}
				JOINT lclavicle
				{
					OFFSET 0.071702 0.114000 -0.018898
					CHANNELS 3 Zrotation Yrotation Xrotation
					JOINT lshoulder
					{
						OFFSET 0.122921 0.045205 -0.019046
						CHANNELS 3 Zrotation Yrotation Xrotation
						JOINT lelbow
						{
							OFFSET 0.255332 -0.015649 -0.022946
							CHANNELS 3 Zrotation Yrotation Xrotation
							JOINT lwrist
							{
								OFFSET 0.265709 0.012698 -0.007375
								CHANNELS 3 Zrotation Yrotation Xrotation
								End Site
								{
									OFFSET 0.000000 0.000000 0.000000
								}
							}
						}
					}
				}
				JOINT rclavicle
				{
					OFFSET -0.082954 0.112472 -0.023707
					CHANNELS 3 Zrotation Yrotation Xrotation
					JOINT rshoulder
					{
						OFFSET -0.113228 0.046853 -0.008472
						CHANNELS 3 Zrotation Yrotation Xrotation
						JOINT relbow
						{
							OFFSET -0.260127 -0.014369 -0.031269
							CHANNELS 3 Zrotation Yrotation Xrotation
							JOINT rwrist
							{
								OFFSET -0.269108 0.006794 -0.006027
								CHANNELS 3 Zrotation Yrotation Xrotation
								End Site
								{
									OFFSET 0.000000 0.000000 0.000000
								}
							}
						}
					}
				}
			}
		}
	}
}
MOTION
Frames: 12
Frame Time: 0.033333
0.882731 0.317343 0.827340 118.670347 3.336955 88.389961 -0.826798 1.025067 -47.064019 -12.771604 11.511101 64.202674 14.659954 6.333429 -21.997706 0.000000 -0.000000 0.000000 -13.412679 4.484812 -49.821363 1.170404 7.881108 58.693366 0.031204 -9.359825 -7.694604 0.000000 -0.000000 0.000000 2.029003 -1.854734 33.262364 0.306457 2.386341 -10.171622 1.729618 1.858276 -4.463667 -3.160916 -13.199763 -33.765159 5.675439 0.627373 -22.289111 -31.237379 -13.297049 3.806650 -42.757767 -8.419589 19.869616 113.034744 -80.358816 -111.293492 34.113089 4.511264 -45.969772 27.929360 22.077731 7.095600 46.657994 13.613968 20.353958 -63.981356 73.085563 -75.409780 -14.760621 7.016654 -55.367437 
0.977287 0.305568 0.825295 129.855447 4.059377 85.167101 -0.432680 -2.210222 -40.103932 -15.682127 5.211214 70.743737 13.115902 6.672979 -29.302341 0.000000 -0.000000 0.000000 -13.298549 6.877155 -41.347599 -1.618260 16.172556 47.193939 4.955550 -9.810293 -4.523696 0.000000 -0.000000 0.000000 0.679940 -1.621297 31.040392 2.377280 -0.591874 -9.046444 2.682801 0.647166 -4.144337 -3.577354 -14.175135 -29.200060 4.848688 -0.455352 -21.017057 -26.216261 -21.148437 1.571669 -34.971779 -19.632749 18.085241 114.369598 -77.014536 -113.709577 35.054528 4.988032 -45.394771 23.100378 26.235882 2.400453 37.101207 20.335266 17.111297 -80.008468 68.181869 -87.134188 -14.549982 5.806737 -47.449953 
1.071251 0.298130 0.842352 140.215915 5.311661 83.909591 1.102441 -3.765414 -33.215447 -18.676120 -2.913834 73.229160 10.989029 6.485629 -33.080885 0.000000 -0.000000 0.000000 -10.706226 5.051076 -35.133450 -1.690215 11.808018 52.659541 4.023919 -12.269372 -11.736521 0.000000 -0.000000 0.000000 -0.490077 -1.192055 27.540491 3.125248 -3.207514 -8.994312 3.096436 -0.806930 -4.163030 -4.177704 -13.858207 -23.337923 3.992303 -2.616318 -18.791141 -17.539058 -29.003125 -4.004710 -24.297905 -28.210390 12.738258 110.991242 -72.526126 -108.296606 33.334302 1.477993 -40.618993 15.262200 31.184635 -4.349620 25.741303 24.949110 8.822994 -85.856210 60.632897 -90.473865 -14.980390 5.851879 -39.536857 
1.154175 0.301018 0.892870 144.138515 4.974536 84.242494 3.183037 -3.340053 -25.128076 -18.222174 -9.703251 66.783969 6.457778 4.978506 -29.772773 0.000000 -0.000000 0.000000 -7.816594 1.091738 -28.751429 -1.260639 8.112249 49.351619 3.621541 -11.776153 -12.922796 0.000000 -0.000000 0.000000 -1.562783 0.287223 22.880718 1.664313 -3.681267 -7.651538 2.727669 -0.229776 -4.771214 -5.462973 -13.678340 -20.042905 4.343219 -4.280505 -19.299076 -6.725323 -33.356206 -11.093026 -12.434702 -33.903399 3.919976 99.663591 -68.433486 -99.398180 31.307838 -4.128863 -40.436457 4.431108 34.338985 -10.294584 13.164089 27.505923 -3.082807 -89.488153 52.984467 -95.970245 -17.999928 8.961764 -42.406041 
1.229621 0.311662 0.976504 144.885974 4.112230 85.751219 5.592645 -3.134407 -15.046740 -14.535194 -15.440208 50.020071 -1.110640 3.781251 -16.616215 0.000000 -0.000000 0.000000 -5.716214 -1.529012 -19.378206 -1.012078 6.795197 34.958057 5.661957 -8.882752 -4.988057 0.000000 -0.000000 0.000000 -2.960399 2.133488 17.546492 -0.076443 -3.446710 -7.124477 2.686198 0.787288 -5.946365 -6.667023 -13.894664 -16.654348 5.994413 -4.460315 -20.643956 4.203148 -33.348437 -17.098323 -2.746327 -34.797078 -4.106100 84.645999 -63.693892 -90.632843 27.992939 -7.209661 -44.109893 -8.424908 34.035574 -17.000431 6.238814 27.990213 -11.716975 -86.207451 45.888718 -95.692665 -15.278797 10.669296 -43.614846 
1.301028 0.326377 1.081814 146.106751 3.677063 89.027732 7.448612 -3.011454 -5.014569 -4.409562 -15.997909 23.456674 -11.710482 5.015464 10.871362 0.000000 -0.000000 0.000000 -4.414682 -5.869663 -10.955745 -1.637195 0.168676 14.598489 13.181807 -6.796404 20.815092 0.000000 -0.000000 0.000000 -4.862559 2.854356 9.690432 -1.304478 -4.486016 -5.603102 3.018276 1.881114 -8.979273 -8.947605 -15.659602 -8.580080 9.774785 -2.457792 -24.681267 13.724052 -31.691922 -19.922017 4.219823 -34.004036 -9.602142 68.876672 -58.171577 -81.513040 24.293796 -8.032916 -45.450236 -18.147088 31.709052 -19.894126 2.905502 26.513580 -17.168618 -77.478000 41.008014 -90.464728 -13.184307 10.150993 -42.444695 
1.363141 0.340205 1.189223 148.142294 3.936799 92.461056 8.332770 0.546959 1.535751 2.144017 -4.294402 2.258160 -14.825137 12.062740 37.104752 0.000000 -0.000000 0.000000 -3.389834 -9.722378 -8.075452 0.830353 -7.369201 5.003049 18.604399 -7.760378 40.971803 0.000000 -0.000000 0.000000 -6.355190 1.994507 2.799594 -1.201884 -5.305800 -4.104798 3.584515 2.540007 -13.121265 -12.513667 -16.687817 -0.399676 11.786465 -0.566884 -28.667624 21.552651 -29.659270 -20.162912 10.716382 -34.059474 -15.983430 52.233241 -50.814702 -68.531675 19.138772 -10.682472 -45.516511 -22.953892 29.141631 -18.908034 -3.569953 24.318739 -23.789374 -65.055840 38.709216 -81.065744 -11.374736 10.128107 -44.387603 
1.411610 0.346665 1.285144 150.020455 4.815877 92.896602 7.425723 1.986674 3.598998 1.851078 -2.529531 6.847150 -10.852699 15.108681 41.491731 0.000000 -0.000000 0.000000 -1.409928 -8.409896 -8.668560 1.195528 -3.904268 12.775045 17.056314 -7.331754 44.334749 0.000000 -0.000000 0.000000 -5.508112 0.971128 3.361067 -0.514383 -5.389411 -6.242752 3.718589 2.967199 -14.362399 -14.386914 -17.167067 1.237837 11.498970 -0.229527 -30.276102 28.885453 -29.562341 -23.530806 17.010874 -33.302144 -22.391795 38.511269 -40.089255 -57.830558 11.590811 -12.983801 -41.515382 -28.699466 27.592682 -21.888896 -9.609628 20.058686 -28.223428 -54.085357 33.851287 -73.442847 -7.394043 10.293109 -44.655452 
1.460964 0.356711 1.366762 153.339017 5.755849 90.735907 5.868345 0.222323 6.869010 -1.040970 -7.045595 19.188127 -9.662803 16.878660 41.898547 0.000000 -0.000000 0.000000 0.823761 -5.792377 -6.029212 2.407458 -0.905304 20.410696 17.295315 -4.840227 41.660231 0.000000 -0.000000 0.000000 -4.439036 -0.501414 5.870900 -0.076246 -6.760582 -7.495037 3.688709 3.262360 -13.571265 -14.450478 -16.575601 2.002282 11.023835 -0.608154 -30.056691 35.465683 -30.889618 -28.521096 17.492088 -36.002600 -25.821832 36.755405 -31.470520 -54.350378 10.664896 -8.319323 -31.197381 -33.543568 26.514098 -25.011008 -12.781814 14.859395 -31.685687 -49.049959 29.891143 -68.325055 -6.724839 9.931957 -43.008606 
1.514813 0.367677 1.437986 157.600775 6.476713 91.054438 5.442143 -0.964178 9.540675 -2.396427 -6.133047 24.793860 -8.403657 17.476315 41.477163 0.000000 -0.000000 0.000000 3.569112 -3.872853 -6.544610 3.524558 -3.801295 27.363898 17.074541 -4.256325 38.042589 0.000000 -0.000000 0.000000 -4.493305 -2.011864 3.381117 -0.015149 -7.421667 -6.667504 3.417601 2.624742 -13.756054 -14.668067 -17.955790 4.342031 11.110654 0.171870 -29.271134 37.884956 -33.260184 -31.233224 10.571972 -46.281391 -24.340510 44.083691 -30.688748 -55.725796 26.196215 -0.810904 -21.882061 -35.934584 24.568465 -25.819758 -13.212620 11.131616 -32.785809 -48.301807 28.640393 -63.317157 -8.222409 10.277009 -39.484459 
1.570214 0.369609 1.502359 163.784199 6.838114 93.429441 7.567880 -1.290890 10.669094 -1.105878 -2.105464 21.892123 -7.844837 15.788051 37.650257 0.000000 -0.000000 0.000000 7.118178 -2.276385 -9.565092 3.724426 -7.529921 29.745963 17.216858 -5.109968 40.245869 0.000000 -0.000000 0.000000 -5.046075 -4.442672 -0.605875 -0.863080 -7.992545 -5.225530 2.756164 1.597289 -14.818267 -15.356204 -20.434055 5.885110 11.754660 0.920477 -27.884726 36.176151 -36.062914 -29.820336 -6.063630 -57.920508 -13.115878 52.141101 -37.100277 -57.670824 32.702309 -2.442454 -28.115694 -36.640729 21.973229 -24.138888 -13.967981 8.452507 -32.229954 -47.747166 27.678691 -55.780760 -9.181876 12.746049 -32.310619 
1.626306 0.365203 1.559424 172.722113 6.071816 94.504272 10.582068 -1.163702 10.887823 0.185365 -0.765895 16.971982 -8.412848 12.609420 33.176897 0.000000 -0.000000 0.000000 10.421171 -0.799210 -10.782305 3.598983 -7.463656 25.471311 17.413664 -5.687320 40.222655 0.000000 -0.000000 0.000000 -6.912384 -6.865451 -1.206733 -2.730651 -9.212406 -4.367101 2.358698 -0.564895 -14.364011 -14.994112 -22.834310 5.145265 12.130792 1.189819 -26.334111 30.684799 -39.194722 -25.395220 -39.944442 -62.514474 15.207786 51.977228 -46.727657 -48.315760 33.435281 -9.996787 -37.913000 -38.083785 18.306464 -22.624446 -14.521453 6.557117 -31.415234 -45.779350 26.462175 -46.664399 -8.414963 14.626584 -24.899534 
